<?xml version="1.0" standalone="no"?>
<!DOCTYPE svg PUBLIC "-//W3C//DTD SVG 20010904//EN"
 "http://www.w3.org/TR/2001/REC-SVG-20010904/DTD/svg10.dtd">
<svg version="1.0" xmlns="http://www.w3.org/2000/svg"
 width="2000.000000pt" height="1999.000000pt" viewBox="0 0 2000.000000 1999.000000"
 preserveAspectRatio="xMidYMid meet">

<g transform="translate(0.000000,1999.000000) scale(0.100000,-0.100000)"
fill="#204887" stroke="none">
<path d="M3965 18309 c-155 -60 -235 -184 -235 -361 0 -208 33 -728 70 -1093
175 -1730 663 -3433 1429 -4987 182 -368 208 -405 319 -460 l67 -33 2395 0
2395 0 66 32 c120 59 189 155 209 290 12 88 13 6222 1 6310 -19 130 -98 239
-211 292 l-55 26 -3200 2 c-3160 2 -3201 2 -3250 -18z"/>
<path d="M11645 15137 c-109 -37 -186 -104 -233 -205 l-27 -57 0 -1615 0
-1615 27 -57 c34 -74 112 -152 186 -186 l57 -27 1584 -3 c1747 -3 1651 -6
1753 59 121 78 190 243 158 380 -16 71 -71 160 -123 203 -23 19 -148 96 -277
171 -1057 619 -1945 1506 -2555 2554 -71 121 -145 242 -164 268 -41 53 -115
107 -169 124 -59 17 -172 20 -217 6z"/>
<path d="M6505 10673 c-234 -32 -377 -287 -284 -503 36 -84 467 -674 738
-1010 320 -398 692 -809 1088 -1201 394 -392 727 -691 1123 -1010 291 -234
900 -683 986 -727 147 -75 321 -41 432 83 27 31 60 82 73 113 l24 57 3 1895
c2 1207 -1 1922 -7 1970 -5 41 -20 98 -32 125 -31 69 -120 155 -195 185 l-59
25 -1930 1 c-1062 1 -1943 -1 -1960 -3z"/>
<path d="M11679 10670 c-107 -18 -219 -106 -268 -210 l-26 -55 -3 -2375 c-3
-2650 -9 -2446 66 -2546 21 -27 58 -64 82 -82 25 -18 196 -106 380 -197 1782
-873 3749 -1377 5736 -1471 359 -17 373 -17 432 0 115 35 217 139 247 250 14
56 16 349 13 3241 l-3 3180 -28 57 c-39 79 -104 143 -185 181 l-67 32 -3165 1
c-1741 1 -3186 -2 -3211 -6z"/>
<path d="M4120 7335 c-817 -111 -1574 -600 -2013 -1298 -660 -1051 -577 -2384
208 -3342 379 -463 914 -803 1495 -950 247 -62 435 -85 706 -85 279 0 471 23
712 86 1333 348 2225 1580 2136 2949 -89 1353 -1114 2454 -2458 2640 -241 34
-541 34 -786 0z"/>
</g>
</svg>
